<?xml version="1.0" encoding="UTF-8"?>
<!-- Created with Inkscape (http://www.inkscape.org/) -->
<svg width="32" height="32" version="1.1" viewBox="0 0 32 32" xmlns="http://www.w3.org/2000/svg" xmlns:cc="http://creativecommons.org/ns#" xmlns:dc="http://purl.org/dc/elements/1.1/" xmlns:rdf="http://www.w3.org/1999/02/22-rdf-syntax-ns#" xmlns:xlink="http://www.w3.org/1999/xlink">
 <defs>
  <linearGradient id="linearGradient4399" x1="430.51" x2="452.87" y1="501.61" y2="527.82" gradientTransform="matrix(.46459 0 0 .57553 -188.15 736.69)" gradientUnits="userSpaceOnUse">
   <stop offset="0"/>
   <stop stop-opacity="0" offset="1"/>
  </linearGradient>
  <linearGradient id="linearGradient4178" x1="434.16" x2="397.23" y1="548.89" y2="495.31" gradientTransform="matrix(.4615 0 0 .56886 -176.18 739.68)" gradientUnits="userSpaceOnUse">
   <stop stop-color="#127bdc" offset="0"/>
   <stop stop-color="#64b4f4" offset="1"/>
  </linearGradient>
  <linearGradient id="linearGradient4297" x1="388.57" x2="416.57" y1="487.8" y2="507.8" gradientTransform="matrix(.4615 0 0 .4615 -176.18 798.32)" gradientUnits="userSpaceOnUse">
   <stop stop-color="#1d5e8c" offset="0"/>
   <stop stop-color="#2675a7" offset="1"/>
  </linearGradient>
 </defs>
 <metadata>
  <rdf:RDF>
   <cc:Work rdf:about="">
    <dc:format>image/svg+xml</dc:format>
    <dc:type rdf:resource="http://purl.org/dc/dcmitype/StillImage"/>
   </cc:Work>
  </rdf:RDF>
 </metadata>
 <g transform="translate(0 -1020.4)">
  <path d="m1 1037.4h30v-13l-15-1e-4 -2-1.9999h-13z" fill="url(#linearGradient4297)"/>
  <path d="m13 1026.9-2 1.233h-10v1.2331l0.022321 19.719c-0.011161 0.65 0.482 1.2689 0.96833 1.2684l28.009-0.0255c0.54136-3e-4 1-0.571 1-1.2331v-22.195z" fill="url(#linearGradient4178)" stroke-width="1.1104"/>
  <g>
   <g fill-rule="evenodd">
    <path d="m1.0201 1028.2v1.2826h10.979l0.99812-2.565-1.9962 1.2824z" fill="#fff" opacity=".3" stroke-width="1.1314"/>
    <path d="m14 1022.4 1 3.0001h2 14v-1h-14l-1-1e-4z" fill="#fff" opacity=".3"/>
    <path d="m0.90892 1029.4h11.074l1.0067-2.4941h18.121v22.448h-14.094z" fill="url(#linearGradient4399)" opacity=".099"/>
   </g>
   <path transform="translate(0 1020.4)" d="m1.0215 28.992c-0.011161 0.5272 0.48242 1.0298 0.96875 1.0293l28.01-0.021484c0.54136-2e-4 1-1 1-1v-1c0 0.5369-0.45864 0.9998-1 1l-28.01 0.02148c-0.48633 5e-4 -0.97991-0.5021-0.96875-1.0293-0.029541-16.582-0.027472-14.335 0 1z" color="#000000" color-rendering="auto" image-rendering="auto" opacity=".3" shape-rendering="auto" solid-color="#000000" style="isolation:auto;mix-blend-mode:normal"/>
   <g stroke-width=".664">
    <path d="m8.1831 1032.4v6.6374l8.9607 8.9606 6.0593-6.0592 0.39281-0.7636-8.7753-8.7752zm3.3188 1.6594a1.6594 1.6594 0 0 1 1.6594 1.6593 1.6594 1.6594 0 0 1-1.6594 1.6593 1.6594 1.6594 0 0 1-1.6594-1.6593 1.6594 1.6594 0 0 1 1.6594-1.6593z" fill="#87c3f4"/>
    <path d="m7.8512 1032v7.1067l9.2925 9.2926 5.5628-5.5628 1.0488-2.0392-8.7973-8.7973zm0.66375 0.6638h6.1682l8.6288 8.6287-6.1682 6.1682-8.6288-8.6287z" fill="#559fda"/>
    <path d="m10.023 1038.8 7.9073 7.9074 2.727-2.727-9.487-5.31v-0.6638h-0.66375v0.6638z" fill="#4da4ed"/>
    <path d="m16.148 1036.5-3.7881 3.7882 0.4693 0.4693 3.7881-3.788zm1.9913 1.9914-3.7881 3.788 0.46929 0.4692 3.7881-3.788zm1.9913 1.9913-3.7881 3.788 0.46929 0.4692 3.7881-3.7879z" fill="#2471a2" stroke-linecap="square" stroke-miterlimit="0"/>
    <path d="m14.589 1030.2-6.3199 2.0275 2.0276 6.32 11.27 5.7949 4.2924-8.3476zm-2.1455 2.5137a1.6594 1.6594 0 0 1 1.6594 1.6594 1.6594 1.6594 0 0 1-1.6594 1.6593 1.6594 1.6594 0 0 1-1.6594-1.6593 1.6594 1.6594 0 0 1 1.6594-1.6594z" fill="#87c3f4"/>
    <path d="m14.618 1029.9-6.7672 2.1715 2.1715 6.7671 11.686 6.0101 0.15168-0.2956 4.4453-8.643zm-0.05963 0.717 10.853 5.581-3.9903 7.7575-10.852-5.5811-1.8837-5.8738z" fill="#559fda"/>
    <path d="m12.443 1032.7c-0.45823 0-0.87424 0.1858-1.1745 0.4863-0.15014 0.1501-0.27124 0.3289-0.35521 0.5276-0.04198 0.099-0.07383 0.2031-0.09594 0.311-0.0055 0.027-0.01131 0.054-0.01556 0.082-0.0037 0.024-0.0065 0.048-0.0091 0.072a1.6594 1.6594 0 0 1 0.70912-0.1894 1.6594 1.6594 0 0 1 1.6594 1.6594 1.6594 1.6594 0 0 1-0.06352 0.2359c0.02173-0.013 0.04358-0.02 0.06483-0.03 0.02418-0.013 0.04778-0.023 0.07131-0.037 0.04702-0.027 0.09199-0.052 0.13612-0.082 0.08828-0.06 0.17124-0.1286 0.24632-0.2037 0.30029-0.3001 0.48614-0.7149 0.48614-1.1731 0-0.4583-0.18586-0.873-0.48614-1.1733-0.30029-0.3003-0.71501-0.4862-1.1732-0.4862z" fill="#4da4ed" fill-rule="evenodd"/>
    <path d="m17.129 1033.8-2.4498 4.7642 0.59022 0.3035 2.4498-4.7641zm2.5044 1.2879-2.4498 4.764 0.59022 0.3036 2.4498-4.7642zm2.5044 1.2876-2.4498 4.7641 0.59022 0.3037 2.4498-4.7642z" fill="#2574a5" stroke-linecap="square" stroke-miterlimit="0"/>
   </g>
  </g>
 </g>
</svg>
